<svg xmlns="http://www.w3.org/2000/svg" viewBox="0 0 280 60" fill="none">
  <defs>
    <linearGradient id="moonGrad" x1="0%" y1="0%" x2="100%" y2="100%">
      <stop offset="0%" style="stop-color:#38BDF8"/>
      <stop offset="50%" style="stop-color:#5C2D91"/>
      <stop offset="100%" style="stop-color:#A855F7"/>
    </linearGradient>
    <linearGradient id="textGrad" x1="0%" y1="0%" x2="100%" y2="0%">
      <stop offset="0%" style="stop-color:#5C2D91"/>
      <stop offset="100%" style="stop-color:#0078D4"/>
    </linearGradient>
  </defs>
  
  <!-- Moon Icon -->
  <g transform="translate(5, 5)">
    <!-- Crescent Moon -->
    <path d="M25 0C11.2 0 0 11.2 0 25c0 13.8 11.2 25 25 25 4.5 0 8.7-1.2 12.3-3.3C32.1 43.5 28 37 28 30c0-7 4.1-13.5 9.3-16.7C33.7 11.2 29.5 0 25 0z" fill="url(#moonGrad)"/>
    <!-- Stars -->
    <circle cx="38" cy="12" r="2.5" fill="#F59E0B"/>
    <circle cx="44" cy="20" r="2" fill="#EC4899"/>
    <circle cx="42" cy="8" r="1.5" fill="#14B8A6"/>
    <circle cx="48" cy="15" r="1.5" fill="#8B5CF6"/>
    <!-- Child silhouette (simplified) -->
    <circle cx="22" cy="28" r="4" fill="#F87171" opacity="0.9"/>
    <ellipse cx="22" cy="38" rx="4" ry="6" fill="#F87171" opacity="0.9"/>
  </g>
  
  <!-- Text: LUNAMAGIX -->
  <text x="62" y="38" font-family="system-ui, -apple-system, BlinkMacSystemFont, 'Segoe UI', Roboto, sans-serif" font-size="28" font-weight="700" letter-spacing="2" fill="url(#textGrad)">LUNAMAGIX</text>
  
  <!-- Tagline -->
  <text x="62" y="52" font-family="system-ui, -apple-system, BlinkMacSystemFont, 'Segoe UI', Roboto, sans-serif" font-size="8" font-weight="500" letter-spacing="1.5" fill="#6B7280">SMART THERAPEUTIC INNOVATIONS</text>
</svg>
