<svg xmlns="http://www.w3.org/2000/svg" viewBox="0 0 400 300" fill="none">
  <defs>
    <linearGradient id="coachGrad" x1="0%" y1="0%" x2="100%" y2="100%">
      <stop offset="0%" style="stop-color:#F59E0B"/>
      <stop offset="100%" style="stop-color:#EA580C"/>
    </linearGradient>
    <linearGradient id="bgGrad3" x1="0%" y1="0%" x2="100%" y2="100%">
      <stop offset="0%" style="stop-color:#FFFBEB"/>
      <stop offset="100%" style="stop-color:#FEF3C7"/>
    </linearGradient>
  </defs>
  <!-- Background -->
  <rect width="400" height="300" rx="16" fill="url(#bgGrad3)"/>
  <!-- Graduation Cap -->
  <polygon points="200,80 120,110 200,140 280,110" fill="url(#coachGrad)"/>
  <rect x="185" y="60" width="30" height="25" fill="#B45309"/>
  <line x1="200" y1="60" x2="200" y2="45" stroke="#B45309" stroke-width="3"/>
  <circle cx="200" cy="42" r="6" fill="#F59E0B"/>
  <line x1="280" y1="110" x2="290" y2="145" stroke="#B45309" stroke-width="3"/>
  <rect x="285" y="145" width="10" height="8" fill="#F59E0B"/>
  <!-- Chart/Analytics -->
  <rect x="60" y="160" width="120" height="90" rx="8" fill="white" stroke="#F59E0B" stroke-width="2"/>
  <rect x="75" y="210" width="15" height="30" fill="#F59E0B" opacity="0.6"/>
  <rect x="100" y="190" width="15" height="50" fill="#F59E0B" opacity="0.8"/>
  <rect x="125" y="175" width="15" height="65" fill="url(#coachGrad)"/>
  <path d="M75 200 L100 180 L125 165 L150 150" stroke="#EA580C" stroke-width="2" fill="none" stroke-dasharray="4"/>
  <!-- Target/Goal -->
  <circle cx="300" cy="200" r="40" fill="white" stroke="#F59E0B" stroke-width="3"/>
  <circle cx="300" cy="200" r="28" stroke="#EA580C" stroke-width="3" fill="none"/>
  <circle cx="300" cy="200" r="16" fill="url(#coachGrad)"/>
  <circle cx="300" cy="200" r="6" fill="white"/>
  <!-- Books -->
  <rect x="220" y="220" width="35" height="45" rx="2" fill="#8B5CF6" transform="rotate(-10 237 242)"/>
  <rect x="230" y="215" width="35" height="45" rx="2" fill="#6366F1" transform="rotate(5 247 237)"/>
  <!-- Sparkles -->
  <circle cx="340" cy="100" r="6" fill="#8B5CF6" opacity="0.7"/>
  <circle cx="60" cy="120" r="5" fill="#8B5CF6" opacity="0.6"/>
</svg>
