<svg xmlns="http://www.w3.org/2000/svg" viewBox="0 0 400 300" fill="none">
  <defs>
    <linearGradient id="schoolGrad" x1="0%" y1="0%" x2="100%" y2="100%">
      <stop offset="0%" style="stop-color:#3B82F6"/>
      <stop offset="100%" style="stop-color:#6366F1"/>
    </linearGradient>
    <linearGradient id="bgGrad" x1="0%" y1="0%" x2="100%" y2="100%">
      <stop offset="0%" style="stop-color:#EFF6FF"/>
      <stop offset="100%" style="stop-color:#DBEAFE"/>
    </linearGradient>
  </defs>
  <!-- Background -->
  <rect width="400" height="300" rx="16" fill="url(#bgGrad)"/>
  <!-- School Building -->
  <rect x="100" y="120" width="200" height="130" rx="4" fill="url(#schoolGrad)"/>
  <rect x="170" y="180" width="60" height="70" rx="2" fill="#1E40AF"/>
  <!-- Roof -->
  <polygon points="200,60 80,120 320,120" fill="#1E40AF"/>
  <!-- Windows -->
  <rect x="120" y="140" width="35" height="30" rx="2" fill="#BFDBFE"/>
  <rect x="245" y="140" width="35" height="30" rx="2" fill="#BFDBFE"/>
  <!-- Flag -->
  <rect x="195" y="40" width="4" height="25" fill="#1E40AF"/>
  <polygon points="199,40 199,55 220,47.5" fill="#F59E0B"/>
  <!-- AI Sparkles -->
  <circle cx="330" cy="80" r="8" fill="#8B5CF6" opacity="0.8"/>
  <circle cx="350" cy="100" r="5" fill="#8B5CF6" opacity="0.6"/>
  <circle cx="70" cy="90" r="6" fill="#8B5CF6" opacity="0.7"/>
  <!-- Digital Elements -->
  <rect x="50" y="200" width="30" height="40" rx="4" fill="#8B5CF6" opacity="0.3"/>
  <rect x="55" y="210" width="20" height="3" rx="1" fill="#8B5CF6"/>
  <rect x="55" y="218" width="15" height="3" rx="1" fill="#8B5CF6"/>
  <rect x="55" y="226" width="18" height="3" rx="1" fill="#8B5CF6"/>
  <rect x="320" y="180" width="30" height="40" rx="4" fill="#8B5CF6" opacity="0.3"/>
  <rect x="325" y="190" width="20" height="3" rx="1" fill="#8B5CF6"/>
  <rect x="325" y="198" width="15" height="3" rx="1" fill="#8B5CF6"/>
  <rect x="325" y="206" width="18" height="3" rx="1" fill="#8B5CF6"/>
</svg>
